<svg width="16" height="12" viewBox="0 0 16 12" fill="none" xmlns="http://www.w3.org/2000/svg">
<path d="M14.5 0H1.50001C0.672854 0 0 0.628107 0 1.40026V9.80173C0 10.5739 0.672854 11.202 1.50001 11.202H14.5C15.3271 11.202 16 10.5739 16 9.80173V1.40026C16 0.628107 15.3271 0 14.5 0ZM14.5 0.933493C14.5679 0.933493 14.6325 0.94665 14.6916 0.969628L8 6.38361L1.30833 0.969628C1.36742 0.946681 1.43204 0.933493 1.49998 0.933493H14.5ZM14.5 10.2685H1.50001C1.22414 10.2685 0.999996 10.0593 0.999996 9.80169V1.95587L7.67236 7.35402C7.76661 7.43013 7.8833 7.46798 8 7.46798C8.1167 7.46798 8.23339 7.43016 8.32764 7.35402L15 1.95587V9.80173C15 10.0593 14.7759 10.2685 14.5 10.2685Z" fill="#2196F3"/>
</svg>
